<svg width="10" height="17" fill="none" xmlns="http://www.w3.org/2000/svg"><path d="M4.64 3.572A1.536 1.536 0 104.64.5a1.536 1.536 0 000 3.072zm4.227 3.802C7.602 6.64 6.564 5.652 5.69 4.489c-.549-.773-2-.732-2.59-.025A16.945 16.945 0 00.837 7.137a.803.803 0 001.334.895c.265-.395.566-.791.9-1.185-.014.834.028 2.34.05 3.017a1.3 1.3 0 01-.15.645c-.828 1.582-1.358 3.078-1.896 4.909a.844.844 0 101.619.476c.496-1.688.976-3.055 1.724-4.502.038.002.076.002.114 0 .478 1.424.955 2.85 1.434 4.274.347 1.038 1.958.5 1.61-.54a5069.95 5069.95 0 01-1.565-4.67c-.03-.09-.104-.44-.114-.554a28.951 28.951 0 01-.108-2.874 12.776 12.776 0 002.449 1.835c.9.523 1.518-.974.629-1.49z" fill="#AFAFAF"/></svg>